
<svg
        width="44.831985mm"
        height="41.93mm"
        viewBox="0 0 44.831985 41.93"
        version="1.1"
        id="svg3014"
        xmlns:inkscape="http://www.inkscape.org/namespaces/inkscape"
        xmlns:sodipodi="http://sodipodi.sourceforge.net/DTD/sodipodi-0.dtd"
        xmlns="http://www.w3.org/2000/svg"
        xmlns:svg="http://www.w3.org/2000/svg">
    <sodipodi:namedview
            id="namedview3016"
            pagecolor="#ffffff"
            bordercolor="#000000"
            borderopacity="0.25"
            inkscape:showpageshadow="2"
            inkscape:pageopacity="0.0"
            inkscape:pagecheckerboard="0"
            inkscape:deskcolor="#d1d1d1"
            inkscape:document-units="mm"
            showgrid="false" />
    <defs
            id="defs3011" />
    <g
            inkscape:label="Vrstva 1"
            inkscape:groupmode="layer"
            id="layer1"
            transform="translate(-80.047213,-98.336568)">
        <path
                style="fill:#02f3e9;stroke:#261546;stroke-width:0.9;stroke-linecap:round;stroke-linejoin:round;stroke-dasharray:none;stroke-opacity:1"
                d="m 80.497209,114.46946 22.044881,-15.6829 21.88712,15.61413 -8.46397,25.41587 H 89.229869 Z"
                id="path893"
                sodipodi:nodetypes="cccccc"
                inkscape:export-filename="..\..\Desktop\path893.svg"
                inkscape:export-xdpi="96"
                inkscape:export-ydpi="96" />
        <g
                inkscape:label="Clip"
                id="use355"
                transform="translate(-22.026916,-8.5114423)">
            <path
                    d="m 115.89593,138.62682 0.25232,-3.87828 0.25232,-3.87827 -0.6009,-0.81276 c -1.07663,-1.30465 0.83906,-2.7237 2.2081,-2.80932 3.39294,-0.21221 10.53624,-0.47801 8.26285,3.44113 v 4.23333 4.23333 l -4.92381,0.0718 -4.92381,0.0719 c -0.51299,-0.007 -0.54098,0.0998 -0.52707,-0.67286 z m 11.31756,-7.67292 c 2.03815,-4.01892 -2.70488,-4.4748 -5.38679,-4.57881 l -2.85643,-0.11077 0.0974,-0.30104 c 2.13349,-1.78443 4.75831,-1.77913 7.20533,-1.55616 2.31942,0.36223 4.2745,1.61953 3.88021,2.70407 l -0.61534,0.83276 c 0.2012,2.78707 0.30549,6.00897 0.24807,8.43391 h -1.1277 -1.1277 c -0.10327,-2.27433 -0.3236,-3.5364 -0.31701,-5.42396 z m 3.42258,-2.86875 0.36558,-0.41771 c 1.82778,-2.81982 -3.83963,-4.06116 -5.78954,-4.1526 l -2.91042,-0.10386 c 0.81996,-1.77294 4.42653,-2.07294 6.73505,-1.80387 1.74552,0.20345 5.58578,0.90126 4.64232,2.49859 l -0.50356,0.76278 0.0775,4.29948 0.0775,4.29948 h -1.18029 -1.18029 c -0.35182,-1.80703 -0.33241,-3.87928 -0.33385,-5.38229 z"
                    style="fill:#261546;fill-opacity:1;stroke-width:1"
                    id="path3294" />
        </g>
    </g>
</svg>
