<?xml version="1.0" encoding="UTF-8" standalone="no"?>
<!-- Created with Inkscape (http://www.inkscape.org/) -->

<svg
   width="24.065344mm"
   height="37.058372mm"
   viewBox="0 0 24.065344 37.058372"
   version="1.1"
   id="svg1"
   xmlns:inkscape="http://www.inkscape.org/namespaces/inkscape"
   xmlns:sodipodi="http://sodipodi.sourceforge.net/DTD/sodipodi-0.dtd"
   xmlns="http://www.w3.org/2000/svg"
   xmlns:svg="http://www.w3.org/2000/svg">
  <sodipodi:namedview
     id="namedview1"
     pagecolor="#ffffff"
     bordercolor="#000000"
     borderopacity="0.25"
     inkscape:showpageshadow="2"
     inkscape:pageopacity="0.0"
     inkscape:pagecheckerboard="0"
     inkscape:deskcolor="#d1d1d1"
     inkscape:document-units="mm">
    <inkscape:page
       x="0"
       y="0"
       width="24.065344"
       height="37.058372"
       id="page2"
       margin="0"
       bleed="0" />
  </sodipodi:namedview>
  <defs
     id="defs1" />
  <g
     inkscape:label="Vrstva 1"
     inkscape:groupmode="layer"
     id="layer1"
     transform="translate(-152.65754,-99.621981)">
    <path
       style="fill:#000000;fill-opacity:1;stroke-width:0.0754422"
       d="m 152.70775,133.10743 c -0.0275,-1.96514 -0.0501,-7.46348 -0.0502,-12.21854 -9e-5,-8.33439 0.005,-8.67108 0.14961,-9.35484 0.0823,-0.39012 0.15024,-0.79437 0.15089,-0.89834 5.3e-4,-0.10397 0.11152,-0.36617 0.24637,-0.58267 0.22241,-0.35706 0.27084,-0.39381 0.52132,-0.39563 0.20668,-0.002 0.37271,-0.0784 0.66012,-0.30554 0.36271,-0.2867 0.38422,-0.32328 0.38824,-0.66012 l 0.004,-0.35659 0.09,0.25971 c 0.0703,0.20281 0.1472,0.27443 0.3509,0.32685 0.38502,0.0991 0.89033,0.003 0.99283,-0.18824 0.11534,-0.21551 0.0293,-0.87235 -0.13858,-1.05786 -0.12943,-0.14303 -0.12882,-0.14786 0.0165,-0.13185 0.42421,0.0467 0.51589,-0.067 0.71111,-0.88212 0.21498,-0.75499 0.74708,-1.23565 1.38337,-1.65137 0.32495,-0.2535 0.37183,-0.26954 0.49037,-0.16777 0.23351,0.20047 0.39567,0.21204 0.83042,0.0592 0.26006,-0.0914 0.62132,-0.1501 0.92382,-0.1501 0.28579,0 0.53522,-0.0384 0.5873,-0.0905 0.28936,-0.74316 -0.20646,-2.35206 -0.22969,-2.37774 -0.0673,-0.0744 -0.1458,-0.31193 -0.17445,-0.52791 l -0.0521,-0.3927 0.81283,-0.8706 c 0.53917,-0.577499 0.86615,-0.870464 0.9712,-0.870184 0.435,0.0011 0.77264,0.181843 1.30574,0.698754 l 0.54882,0.53217 0.29522,-0.0885 c 0.16237,-0.0486 0.45971,-0.23583 0.66076,-0.41595 0.45173,-0.404727 1.03391,-0.674104 1.32074,-0.611107 0.13357,0.02934 0.30301,0.178435 0.47527,0.418207 0.14723,0.20493 0.45512,0.51659 0.6842,0.69256 l 0.41651,0.31996 -0.0489,0.41494 c -0.0269,0.22821 -0.092,0.55073 -0.14456,0.7167 -0.13348,0.42113 -0.20996,2.11825 -0.10434,2.31559 0.0753,0.14076 0.12792,0.14984 0.59893,0.10343 0.3969,-0.0391 0.56882,-0.0237 0.74319,0.0664 0.25507,0.1319 0.72919,0.15671 0.80017,0.0419 0.0898,-0.14536 0.46419,-0.0733 0.83395,0.16049 0.96453,0.6099 1.31041,1.04533 1.43057,1.80101 0.0737,0.46357 0.16064,0.60354 0.37477,0.60354 0.17851,0 0.17994,0.005 0.0728,0.26162 -0.129,0.30875 -0.14103,0.66977 -0.0293,0.87858 0.18984,0.35474 0.81988,0.32756 1.2745,-0.055 l 0.22976,-0.19333 v 0.2783 c 0,0.21799 0.0578,0.33609 0.26669,0.545 0.24887,0.24886 0.29061,0.26387 0.62422,0.22436 0.33971,-0.0402 0.36472,-0.0304 0.50192,0.19727 0.32557,0.54024 0.62823,1.49772 0.73034,2.31047 0.14267,1.13566 0.19908,3.03604 0.21172,7.1331 0.007,2.19915 0.0419,5.13574 0.0781,6.52576 0.15723,6.03837 0.25472,10.86158 0.22023,10.89607 -0.0205,0.0205 -5.22994,0.0724 -11.57655,0.11528 -6.34661,0.0429 -11.7289,0.0989 -11.96066,0.12441 l -0.42136,0.0464 z"
       id="path3"
       sodipodi:nodetypes="ccccsccccsscsscssssssscscsccsssscscsscccsscsscssssscsssscc"
       inkscape:export-filename="path3.png"
       inkscape:export-xdpi="96"
       inkscape:export-ydpi="96" />
  </g>
</svg>
